# xmcd
#
# Track frame offsets: 
#        182
#        14362
#        31252
#        44590
#        55445
#        76832
#        95570
#        114275
#        130170
#        157055
#        168970
#        213350
#        236912
#        255272
#        280920
#        307752
#
# Disc length: 4453 seconds
#
# Revision: 2
# Processed by: cddbd v1.5.1PL0 Copyright (c) Steve Scherf et al.
# Submitted via: ExactAudioCopy v0.95a4
#
DISCID=cf116310
DTITLE=B.B.King - How Blue Can You Get? Classic Performances [CD1.1964
DTITLE=1971)
DYEAR=1996
DGENRE=Blues
TTITLE0=Everyday I Have the Blues
TTITLE1=Sweet Little Angel
TTITLE2=Please Love Me
TTITLE3=You Upset Me
TTITLE4=Gambler's Blues
TTITLE5=Buzz Me
TTITLE6=Baby Get Lost
TTITLE7=Blind Love
TTITLE8=Don't Answer the Door
TTITLE9=Please Accept My Love
TTITLE10=Worry, Worry
TTITLE11=How Blue Can You Get?
TTITLE12=Eyesight to the Blind
TTITLE13=Chains and Things*
TTITLE14=Sweet Sixteen *
TTITLE15=The Thrill is Gone *
EXTD=
EXTT0=
EXTT1=
EXTT2=
EXTT3=
EXTT4=
EXTT5=
EXTT6=
EXTT7=
EXTT8=
EXTT9=
EXTT10=
EXTT11=
EXTT12=
EXTT13=Not released in the US
EXTT14=Not released in the US
EXTT15=Not released in the US
PLAYORDER=
